<svg width="15" height="15" viewBox="0 0 15 15" fill="none" xmlns="http://www.w3.org/2000/svg">
<path d="M6.99989 10.3749C7.00809 10.3854 7.0204 10.3893 7.02919 10.3992C7.0705 10.4479 7.11913 10.4854 7.17362 10.5199C7.19618 10.5337 7.21376 10.5519 7.23807 10.563C7.31805 10.6005 7.40565 10.6248 7.49999 10.6248C7.59432 10.6248 7.68192 10.6005 7.76249 10.563C7.78622 10.5519 7.80438 10.5337 7.82635 10.5199C7.88085 10.4856 7.92948 10.4481 7.97079 10.3992C7.97899 10.3893 7.99217 10.3854 8.00008 10.3749L9.87508 7.875C10.0175 7.68574 10.04 7.43262 9.93455 7.22051C9.82821 7.00869 9.612 6.8748 9.37528 6.8748H8.12518V0.624902C8.12489 0.280078 7.84569 0 7.49999 0C7.15429 0 6.87509 0.280078 6.87509 0.624902V6.8748H5.62499C5.38798 6.8748 5.17177 7.00869 5.06572 7.22051C4.96083 7.43232 4.9831 7.68545 5.12519 7.875L6.99989 10.3749Z" fill="#D09B46"/>
<path d="M14.3751 9.375C14.0294 9.375 13.7502 9.65508 13.7502 9.9999V11.8749C13.7502 12.9088 12.9091 13.7499 11.8752 13.7499H3.1251C2.09121 13.7499 1.2501 12.9088 1.2501 11.8749V9.9999C1.2501 9.65478 0.970605 9.375 0.625195 9.375C0.279785 9.375 0 9.65508 0 9.9999V11.8749C0 13.5981 1.40186 15 3.1251 15H11.8752C13.5981 15 15 13.5981 15 11.8749V9.9999C15 9.65508 14.7205 9.375 14.3751 9.375Z" fill="#D09B46"/>
</svg>
