<svg width="30" height="30" viewBox="0 0 30 30" fill="none" xmlns="http://www.w3.org/2000/svg">
<path fill-rule="evenodd" clip-rule="evenodd" d="M21.9445 23.3334C21.9445 23.3334 23.3334 23.3334 23.3334 21.9445C23.3334 20.5556 21.9445 16.389 15.0001 16.389C8.05564 16.389 6.66675 20.5556 6.66675 21.9445C6.66675 23.3334 8.05564 23.3334 8.05564 23.3334H21.9445ZM8.06258 22.0223V22.0195V22.0223ZM8.08619 21.9445H21.914C21.9205 21.9438 21.927 21.9428 21.9334 21.9417L21.9445 21.939C21.9431 21.5973 21.7306 20.5695 20.789 19.6279C19.8834 18.7223 18.1792 17.7779 15.0001 17.7779C11.8195 17.7779 10.1167 18.7223 9.21119 19.6279C8.26953 20.5695 8.05841 21.5973 8.05564 21.939C8.0658 21.9409 8.07599 21.9428 8.08619 21.9445ZM21.939 22.0223V22.0195V22.0223ZM15.0001 13.6112C15.7368 13.6112 16.4433 13.3185 16.9643 12.7976C17.4852 12.2767 17.7779 11.5701 17.7779 10.8334C17.7779 10.0967 17.4852 9.39016 16.9643 8.86923C16.4433 8.34829 15.7368 8.05564 15.0001 8.05564C14.2634 8.05564 13.5568 8.34829 13.0359 8.86923C12.515 9.39016 12.2223 10.0967 12.2223 10.8334C12.2223 11.5701 12.515 12.2767 13.0359 12.7976C13.5568 13.3185 14.2634 13.6112 15.0001 13.6112ZM19.1667 10.8334C19.1667 11.9385 18.7278 12.9983 17.9464 13.7797C17.165 14.5611 16.1052 15.0001 15.0001 15.0001C13.895 15.0001 12.8352 14.5611 12.0538 13.7797C11.2724 12.9983 10.8334 11.9385 10.8334 10.8334C10.8334 9.72835 11.2724 8.66854 12.0538 7.88714C12.8352 7.10574 13.895 6.66675 15.0001 6.66675C16.1052 6.66675 17.165 7.10574 17.9464 7.88714C18.7278 8.66854 19.1667 9.72835 19.1667 10.8334Z" fill="#303F49"/>
</svg>
