<svg width="14" height="14" viewBox="0 0 14 14" fill="none" xmlns="http://www.w3.org/2000/svg">
<path d="M4.33854 13.5734L9.74531 8.16666L12.1443 8.16666C12.5234 8.16666 12.9026 8.0828 13.2599 7.91874L13.4932 7.79478C13.8068 7.64895 14 7.34635 14 6.99999C14 6.65364 13.8068 6.35104 13.5042 6.21249L13.2453 6.0776C12.9026 5.91718 12.5198 5.83333 12.1406 5.83333L9.74167 5.83333L4.33854 0.426562C4.0651 0.153124 3.69688 -4.50364e-07 3.30677 -4.67416e-07L2.625 -4.97217e-07C2.51927 -5.01839e-07 2.42083 0.0583328 2.36979 0.153124C2.31875 0.247916 2.3224 0.360937 2.38073 0.452082L5.9026 5.94999C5.02031 6.00468 4.28385 6.0776 3.38698 6.16874L2.46823 6.25989L1.11927 4.21822C1.06458 4.13437 0.973438 4.08697 0.875 4.08697L0.291667 4.08697C0.204167 4.08697 0.120313 4.12708 0.065625 4.19635C0.0109375 4.26562 -0.0109369 4.35677 0.00729255 4.44062L0.576041 7.00364L0.00729233 9.56666C0.00364643 9.58853 -4.20084e-07 9.61041 -4.20881e-07 9.62864C-4.2375e-07 9.69426 0.021875 9.75989 0.0656248 9.81093C0.120312 9.8802 0.204167 9.9203 0.295312 9.9203L0.878646 9.9203C0.977084 9.9203 1.06823 9.87291 1.12292 9.78905L2.47187 7.74739L3.39427 7.83853C4.29115 7.92968 5.0276 8.0026 5.9099 8.05728L2.38802 13.5552C2.32969 13.6463 2.32604 13.7594 2.37708 13.8505C2.42812 13.9453 2.52656 14.0036 2.63229 14.0036L3.31771 14.0036C3.69687 14 4.0651 13.8505 4.33854 13.5734Z" fill="#006B99"/>
</svg>
