<svg width="14" height="14" viewBox="0 0 14 14" fill="none" xmlns="http://www.w3.org/2000/svg">
<path d="M13.9849 3.46304C13.9849 3.4483 13.9849 3.4483 13.9849 3.43356C13.9695 3.40408 13.9695 3.37431 13.9541 3.34483V3.33009C13.9387 3.3006 13.9077 3.27083 13.8923 3.25609L13.8769 3.24135C13.8615 3.22661 13.8304 3.21187 13.815 3.19684L13.7996 3.1821H13.7842L13.7688 3.16736L7.20116 0.0446223C7.07742 -0.01463 6.92289 -0.01463 6.78406 0.0446223L4.57422 1.09527L11.1724 4.33622L11.1878 4.35096C11.2031 4.35096 11.2031 4.3657 11.2185 4.3657C11.2339 4.38044 11.2339 4.39518 11.2493 4.41021C11.2493 4.42495 11.2493 4.42495 11.2493 4.43969V4.45443V7.88788C11.2493 7.94713 11.2185 7.99136 11.1721 8.02113L9.84319 8.68707C9.76593 8.73158 9.67328 8.70181 9.6268 8.62781C9.61141 8.61307 9.61141 8.5833 9.61141 8.55382V5.19436L2.9363 1.89445L2.92091 1.87971L0.24749 3.15233L0.232098 3.16707H0.216705L0.201313 3.18181C0.185921 3.19655 0.154835 3.21129 0.139442 3.22632L0.12405 3.24106C0.0932656 3.27054 0.0775716 3.30032 0.0467871 3.3298V3.34454C0.0313948 3.37402 0.0160026 3.40379 0.0160026 3.43327C0.0160026 3.44801 0.0160026 3.44801 0.0160026 3.46275C0.0160026 3.49223 0.000610352 3.50726 0.000610352 3.53675V3.55149V10.4476C0.000610352 10.6103 0.0932656 10.773 0.263184 10.847L6.76867 13.9547C6.86133 13.9992 6.96967 14.014 7.07772 13.9842L7.10851 13.9695C7.13929 13.9695 7.15499 13.9547 7.18577 13.94L13.7377 10.8323C13.8923 10.7583 14.0003 10.6103 14.0003 10.4328V3.55178V3.53704C13.9849 3.50726 13.9849 3.49252 13.9849 3.46304Z" fill="#006B99"/>
</svg>
