<svg width="11" height="11" viewBox="0 0 11 11" fill="none" xmlns="http://www.w3.org/2000/svg">
<path d="M11 8.24824C11 8.28343 10.993 8.33269 10.9859 8.36084L10.4722 10.5918C10.4229 10.81 10.1977 10.993 9.97249 10.993C4.46897 11 0 6.54511 0 1.02751C0 0.802303 0.175944 0.577095 0.401152 0.527831L2.63212 0.0140755C2.66731 0.00703775 2.71657 0 2.75176 0C2.94178 0 3.15291 0.140755 3.23033 0.309661L4.26487 2.71657C4.28599 2.77287 4.3071 2.85733 4.3071 2.92067C4.3071 3.05438 4.22265 3.23736 4.11708 3.32182L2.80806 4.38452C3.48369 5.81318 5.18682 7.51631 6.61548 8.19194L7.67818 6.88996C7.76264 6.78439 7.94562 6.69994 8.07933 6.69994C8.13564 6.69994 8.22713 6.72105 8.28343 6.74216L10.6903 7.77671C10.8592 7.84709 11 8.06526 11 8.24824Z" fill="#D09B46"/>
</svg>
