<svg width="22" height="15" viewBox="0 0 22 15" fill="none" xmlns="http://www.w3.org/2000/svg">
<path d="M21.3353 7.5128C21.3353 7.5128 21.3353 11.0068 20.8874 12.6834C20.6442 13.6049 19.9147 14.3089 19.006 14.552C17.3421 15 10.6741 15 10.6741 15C10.6741 15 4.00597 15 2.34215 14.552C1.42065 14.3089 0.703925 13.6049 0.460751 12.6834C0 11.0068 0 7.5128 0 7.5128C0 7.5128 0 4.01877 0.447952 2.34215C0.691126 1.42065 1.42065 0.691126 2.32935 0.447952C3.99317 0 10.6741 0 10.6741 0C10.6741 0 17.3421 0 19.006 0.447952C19.9275 0.691126 20.6442 1.42065 20.8874 2.34215C21.3353 4.01877 21.3353 7.5128 21.3353 7.5128ZM14.0657 7.5128L8.48549 4.33874V10.6869L14.0657 7.5128Z" fill="white"/>
</svg>
