<svg width="11" height="8" viewBox="0 0 11 8" fill="none" xmlns="http://www.w3.org/2000/svg">
<path d="M3.91998 4.47099C1.06969 2.46416 0.851525 2.28669 0.197014 1.7884C0.0703351 1.69283 -4.23347e-05 1.54949 -4.23347e-05 1.39932V1.00341C-4.23347e-05 0.450512 0.464449 0 1.03451 0H9.97244C10.5425 0 11.007 0.450512 11.007 1.00341V1.39932C11.007 1.55631 10.9366 1.69966 10.8099 1.79522C10.1554 2.29352 9.93725 2.47099 7.08696 4.47782C6.72804 4.73038 6.01019 5.35154 5.51051 5.33788C5.00379 5.34471 4.28594 4.72355 3.91998 4.47099ZM11 2.7372V6.99659C11 7.54949 10.5355 8 9.9654 8H1.02747C0.457411 8 -0.00708008 7.54949 -0.00708008 6.99659V2.74403C-0.00708008 2.64164 0.112562 2.5802 0.204052 2.64846C0.689656 3.00341 1.33009 3.46758 3.51883 5.01024C3.96924 5.33106 4.73636 6.00683 5.49643 6C6.26355 6.00683 7.04474 5.31741 7.48108 5.01024C9.66982 3.46758 10.3103 3.00341 10.7888 2.64164C10.8733 2.5802 11 2.63481 11 2.7372Z" fill="#D09B46"/>
</svg>
