<svg width="15" height="15" viewBox="0 0 15 15" fill="none" xmlns="http://www.w3.org/2000/svg">
<path d="M0 1.8C0 0.8 0.8 0 1.8 0C2.8 0 3.6 0.8 3.6 1.8C3.6 2.8 2.8 3.61429 1.8 3.61429C0.8 3.61429 0 2.8 0 1.8ZM0.242857 15V4.98571H3.35714V15H0.242857ZM11.9 15V10.1286C11.9 8.97143 11.8714 7.47143 10.2857 7.47143C8.67143 7.47143 8.42857 8.72857 8.42857 10.0429V15H5.3V4.98571H8.28572V6.35714H8.32857C8.74286 5.57143 9.75714 4.74286 11.2714 4.74286C14.4143 4.74286 15 6.81429 15 9.51429V15.0143H11.9V15Z" fill="white"/>
</svg>
