<svg width="11" height="15" viewBox="0 0 11 15" fill="none" xmlns="http://www.w3.org/2000/svg">
<path d="M0 5.6238C0 2.51439 2.45904 0 5.5 0C8.54096 0 11 2.51439 11 5.6238C11 7.88868 10.2304 8.52207 6.06314 14.6929C5.79096 15.096 5.20904 15.096 4.93686 14.6929C0.769624 8.52207 0 7.88868 0 5.6238ZM7.7901 5.6238C7.7901 4.32821 6.76706 3.28215 5.5 3.28215C4.23293 3.28215 3.2099 4.32821 3.2099 5.6238C3.2099 6.91939 4.23293 7.96545 5.5 7.96545C6.76706 7.96545 7.7901 6.91939 7.7901 5.6238Z" fill="#D09B46"/>
</svg>
