<svg width="19" height="15" viewBox="0 0 19 15" fill="none" xmlns="http://www.w3.org/2000/svg">
<path d="M16.5692 4.24615C16.5692 9.23077 12.7846 15 5.81539 15C3.69231 15 1.66154 14.4 0 13.2923C0.323077 13.3385 0.6 13.3385 0.923077 13.3385C2.67692 13.3385 4.33846 12.7385 5.63077 11.7231C3.96923 11.6769 2.58462 10.6154 2.07692 9.09231C2.30769 9.13846 2.53846 9.13846 2.76923 9.13846C3.09231 9.13846 3.46154 9.09231 3.78462 9C2.03077 8.63077 0.738462 7.10769 0.738462 5.30769V5.26154C1.24615 5.53846 1.84615 5.72308 2.44615 5.72308C1.43077 5.03077 0.738462 3.87692 0.738462 2.58462C0.738462 1.89231 0.923077 1.24615 1.24615 0.692308C3.09231 3 5.90769 4.47692 9.04615 4.66154C9 4.38462 8.95385 4.10769 8.95385 3.78462C8.95385 1.70769 10.6615 0 12.7385 0C13.8462 0 14.8154 0.461538 15.5077 1.2C16.3846 1.01538 17.1692 0.738462 17.9077 0.276923C17.6308 1.15385 17.0308 1.89231 16.2462 2.35385C16.9846 2.26154 17.7231 2.07692 18.4154 1.75385C17.9077 2.49231 17.2615 3.18462 16.5231 3.69231C16.5692 3.92308 16.5692 4.06154 16.5692 4.24615Z" fill="white"/>
</svg>
