<svg width="11" height="15" viewBox="0 0 11 15" fill="none" xmlns="http://www.w3.org/2000/svg">
<path d="M10.6408 0.385406C10.4211 0.280457 10.1622 0.321231 9.9825 0.489292L9.03418 1.3608C9.00856 1.38456 8.96962 1.38456 8.944 1.36045L7.65406 0.162743C7.42073 -0.0542476 7.0675 -0.0542476 6.83418 0.162743L5.54527 1.35903C5.51931 1.38314 5.48002 1.38314 5.4544 1.35903L4.16514 0.162743C3.93182 -0.0542476 3.57859 -0.0542476 3.34527 0.162743L2.05499 1.36045C2.02903 1.38456 1.99008 1.38456 1.96412 1.3608L1.01545 0.489292C0.763684 0.257056 0.378 0.280457 0.154243 0.541767C0.0534661 0.658772 -0.0011923 0.810523 -0.000167454 0.967239L-0.000167454 14.0324C-0.00255876 14.3827 0.269367 14.6685 0.606882 14.671C0.757876 14.672 0.904087 14.6149 1.01716 14.5107L1.96549 13.6392C1.99111 13.6154 2.03005 13.6154 2.05601 13.6396L3.34595 14.8373C3.57927 15.0542 3.9325 15.0542 4.16583 14.8373L5.45474 13.641C5.4807 13.6169 5.51999 13.6169 5.54595 13.641L6.83487 14.8373C7.06819 15.0542 7.42142 15.0542 7.65474 14.8373L8.94502 13.6396C8.97098 13.6154 9.00993 13.6154 9.03589 13.6392L9.9849 14.5104C10.2367 14.7426 10.6223 14.7188 10.8461 14.4575C10.9462 14.3405 11.0012 14.1888 11.0002 14.0324L11.0002 0.967239C11.0029 0.71621 10.8618 0.48752 10.6408 0.385406ZM2.26167 5.08899L5.66381 5.08899C5.8148 5.08899 5.9371 5.21593 5.9371 5.37264C5.9371 5.52936 5.8148 5.65629 5.66381 5.65629L2.26167 5.65629C2.11067 5.65629 1.98837 5.52936 1.98837 5.37264C1.98837 5.21593 2.11067 5.08899 2.26167 5.08899ZM8.738 9.91101L2.26167 9.91101C2.11067 9.91101 1.98837 9.78407 1.98837 9.62736C1.98837 9.47064 2.11067 9.34371 2.26167 9.34371L8.73834 9.34371C8.88934 9.34371 9.01163 9.47064 9.01163 9.62736C9.01163 9.78407 8.889 9.91101 8.738 9.91101ZM8.738 7.78365L2.26167 7.78365C2.11067 7.78365 1.98837 7.65672 1.98837 7.5C1.98837 7.34328 2.11067 7.21635 2.26167 7.21635L8.73834 7.21635C8.88934 7.21635 9.01163 7.34328 9.01163 7.5C9.01163 7.65672 8.889 7.78365 8.738 7.78365Z" fill="#006B99"/>
</svg>
